<?xml version="1.0" standalone="no"?>
<!DOCTYPE svg PUBLIC "-//W3C//DTD SVG 20010904//EN"
 "http://www.w3.org/TR/2001/REC-SVG-20010904/DTD/svg10.dtd">
<svg version="1.0" xmlns="http://www.w3.org/2000/svg"
 width="467.000000pt" height="243.000000pt" viewBox="0 0 467.000000 243.000000"
 preserveAspectRatio="xMidYMid meet">
<metadata>
Created by potrace 1.16, written by Peter Selinger 2001-2019
</metadata>
<g transform="translate(0.000000,243.000000) scale(0.100000,-0.100000)"
fill="#000000" stroke="none">
<path d="M2415 2309 c-135 -157 -165 -202 -165 -242 0 -34 -4 -40 -34 -52 -39
-16 -66 -49 -122 -145 -86 -150 -102 -169 -175 -206 -57 -28 -83 -51 -156
-134 -75 -87 -89 -98 -102 -87 -9 7 -53 45 -97 85 -45 40 -86 72 -90 72 -5 0
-49 -42 -99 -94 -84 -88 -94 -95 -144 -105 -66 -14 -96 -36 -223 -160 -85 -82
-118 -131 -90 -131 5 0 46 27 92 60 83 60 100 65 100 29 0 -26 18 -24 69 10
25 17 48 28 52 25 5 -3 11 -20 15 -39 3 -19 11 -35 17 -35 6 0 40 29 77 64 60
58 72 66 119 72 51 7 53 8 47 33 -3 14 -9 50 -13 80 -7 62 -9 62 74 -3 29 -23
52 -46 53 -52 0 -15 -73 -82 -212 -193 -106 -84 -139 -121 -108 -121 6 0 33
11 60 25 57 29 83 30 181 10 87 -19 82 -22 170 109 34 50 65 94 68 98 3 4 65
21 136 37 l129 30 96 -45 c52 -25 138 -72 192 -104 88 -55 128 -71 128 -53 0
15 -87 117 -158 185 -54 51 -120 98 -221 157 l-143 84 44 21 c45 22 47 25 182
233 37 56 79 110 95 119 16 10 47 40 68 68 70 94 116 146 129 146 18 0 62 -88
70 -139 l7 -41 -64 0 -64 0 -113 -120 c-76 -81 -112 -126 -108 -136 5 -12 21
-15 78 -13 72 2 73 2 98 -32 78 -105 231 -204 430 -279 110 -42 163 -76 254
-161 35 -32 68 -59 74 -59 6 0 8 17 5 43 -6 55 11 33 33 -43 9 -30 24 -73 34
-95 9 -22 20 -48 23 -57 4 -10 11 -18 16 -18 7 0 8 29 4 79 -4 50 -2 80 5 85
5 3 28 7 51 8 48 2 69 -12 223 -142 101 -84 148 -105 96 -41 -224 275 -375
441 -465 508 -39 30 -74 61 -78 70 -4 11 11 33 47 70 28 29 54 50 57 48 2 -3
-3 -13 -12 -23 -22 -24 -21 -32 2 -32 31 0 81 49 110 108 23 48 34 59 90 89
35 18 66 31 69 29 2 -3 14 -20 27 -38 l22 -32 -54 -74 c-69 -98 -71 -123 -4
-85 28 17 34 17 93 1 35 -9 76 -21 91 -27 l28 -11 -7 -82 c-5 -65 -3 -91 9
-121 18 -42 37 -49 37 -13 0 13 9 35 21 50 16 20 29 26 59 26 44 0 45 -2 55
-95 9 -85 24 -137 38 -132 6 2 20 33 30 69 l19 65 76 -39 c78 -39 320 -123
329 -114 11 10 -11 27 -105 77 -212 114 -269 161 -384 317 -97 133 -124 159
-179 177 -53 18 -77 42 -157 158 -29 42 -58 77 -66 77 -7 0 -31 -25 -52 -56
-29 -42 -52 -63 -93 -83 -49 -24 -64 -39 -136 -143 -44 -64 -83 -117 -86 -117
-3 -1 -43 71 -90 160 l-84 160 -111 71 -110 71 -75 146 c-41 80 -78 146 -84
147 -5 2 -37 -29 -70 -67z m346 -555 c94 -27 130 -55 199 -154 49 -70 81 -104
138 -146 41 -30 72 -54 68 -54 -20 0 -174 87 -227 127 -115 89 -269 243 -241
243 4 0 33 -7 63 -16z"/>
<path d="M4507 1243 c-3 -21 -9 -72 -12 -113 -8 -91 -26 -152 -75 -250 -49
-97 -103 -166 -188 -236 -81 -67 -256 -155 -364 -183 -181 -47 -600 -52 -863
-12 -366 56 -648 134 -1225 338 -349 123 -516 174 -688 207 -373 72 -653 24
-929 -158 -115 -76 -107 -97 19 -47 141 56 212 66 443 65 200 -1 215 -2 325
-31 193 -51 359 -117 970 -386 303 -133 565 -224 840 -292 451 -110 978 -119
1266 -21 140 47 244 111 347 213 203 201 291 488 227 739 -51 195 -81 249 -93
167z"/>
</g>
</svg>
